<svg width="173" height="55" viewBox="0 0 173 55" fill="none" xmlns="http://www.w3.org/2000/svg">
<path d="M58.3744 20.293C55.2949 20.3335 52.9872 21.1351 51.4597 22.6899C49.9239 24.2446 49.1602 26.439 49.1602 29.2651V45.436C49.1602 46.8126 49.3308 48.0677 49.6802 49.1932C50.0296 50.3188 50.5577 51.331 51.2728 52.2055C51.9878 53.0882 52.9547 53.7684 54.1654 54.2542C55.3842 54.7401 56.8306 54.9587 58.4963 54.9182C60.0808 54.9587 61.4783 54.7401 62.6971 54.2542C63.916 53.7684 64.8829 53.0882 65.5898 52.2055C66.3049 51.3229 66.833 50.3188 67.1824 49.1932C67.5318 48.0677 67.7024 46.8126 67.7024 45.436V29.2651C67.7024 26.439 66.9386 24.2446 65.4029 22.6899C63.8835 21.1351 61.5352 20.3335 58.3744 20.293ZM60.1539 30.3745C60.1458 30.6336 60.1458 30.8036 60.1458 30.8846V44.5209C60.1458 44.5614 60.1458 44.6181 60.1458 44.691C60.1458 45.0068 60.1458 45.2497 60.1376 45.4279C60.1295 45.606 60.1133 45.8651 60.0808 46.1971C60.0483 46.5291 59.9995 46.7964 59.9345 46.9988C59.8614 47.2012 59.7639 47.4037 59.642 47.6304C59.5201 47.849 59.3576 48.011 59.1463 48.1163C58.9432 48.2215 58.6994 48.2782 58.4313 48.2782C58.1306 48.2782 57.8706 48.2215 57.6512 48.1001C57.4319 47.9786 57.2531 47.8005 57.1312 47.5575C57.0093 47.3146 56.8956 47.0879 56.8225 46.8611C56.7412 46.6425 56.6924 46.351 56.6599 45.9947C56.6274 45.6384 56.6112 45.3712 56.6031 45.1849C56.5949 44.9987 56.5949 44.7558 56.5949 44.44V30.7955C56.5949 30.755 56.5949 30.7065 56.5949 30.666C56.5949 30.6255 56.5949 30.5769 56.5949 30.5202C56.5949 30.1639 56.5949 29.9129 56.5949 29.7671C56.5949 29.6214 56.6112 29.3704 56.6356 29.0222C56.6599 28.674 56.7249 28.4148 56.8062 28.2367C56.8956 28.0585 57.0012 27.8642 57.1231 27.6375C57.2531 27.4188 57.4237 27.2569 57.6431 27.1597C57.8625 27.0625 58.1225 27.014 58.4232 27.014C58.6344 27.014 58.8294 27.0383 59.0001 27.0868C59.1707 27.1354 59.317 27.2245 59.4307 27.346C59.5445 27.4674 59.642 27.5808 59.7314 27.6861C59.8207 27.7913 59.8857 27.9452 59.9345 28.1557C59.9833 28.3582 60.0239 28.5363 60.0645 28.6659C60.097 28.8035 60.1214 28.9898 60.1295 29.2408C60.1376 29.4918 60.1458 29.6781 60.1539 29.8076C60.162 29.921 60.162 30.1153 60.1539 30.3745Z" fill="#1EAE91"/>
<path d="M87.8103 20.6575H82.0981C81.6268 20.6575 81.2368 21.0138 81.188 21.4754L79.9611 33.7756C79.8555 34.8688 78.2466 34.8688 78.141 33.7675L76.9872 21.4754C76.9465 21.0057 76.5484 20.6494 76.0771 20.6494H70.3649C69.8124 20.6494 69.3817 21.1353 69.463 21.6859L73.8507 53.8009C73.9157 54.2544 74.2976 54.5864 74.7527 54.5864H83.4225C83.8775 54.5864 84.2676 54.2463 84.3244 53.8009L88.7122 21.6859C88.7934 21.1434 88.3628 20.6575 87.8103 20.6575Z" fill="#1EAE91"/>
<path d="M105.543 47.9704H99.4819C98.9781 47.9704 98.5718 47.5655 98.5718 47.0634V41.1522C98.5718 40.6502 98.9781 40.2453 99.4819 40.2453H104.755C105.259 40.2453 105.665 39.8404 105.665 39.3384V34.7875C105.665 34.2855 105.259 33.8806 104.755 33.8806H99.4819C98.9781 33.8806 98.5718 33.4757 98.5718 32.9737V28.1718C98.5718 27.6697 98.9781 27.2649 99.4819 27.2649H105.056C105.56 27.2649 105.966 26.86 105.966 26.3579V21.5642C105.966 21.0621 105.56 20.6572 105.056 20.6572H91.8358C91.3321 20.6572 90.9258 21.0621 90.9258 21.5642V53.6792C90.9258 54.1812 91.3321 54.5861 91.8358 54.5861H105.543C106.047 54.5861 106.454 54.1812 106.454 53.6792V48.8773C106.454 48.3753 106.047 47.9704 105.543 47.9704Z" fill="#1EAE91"/>
<path d="M123.685 47.9704H117.77C117.266 47.9704 116.86 47.5655 116.86 47.0634V21.5642C116.86 21.0621 116.454 20.6572 115.95 20.6572H110.254C109.75 20.6572 109.344 21.0621 109.344 21.5642V53.6792C109.344 54.1812 109.75 54.5861 110.254 54.5861H123.693C124.197 54.5861 124.603 54.1812 124.603 53.6792V48.8773C124.603 48.3753 124.197 47.9704 123.685 47.9704Z" fill="#1EAE91"/>
<path d="M132.989 20.6572H127.545C127.041 20.6572 126.635 21.0621 126.635 21.5642V53.6792C126.635 54.1812 127.041 54.5861 127.545 54.5861H132.989C133.493 54.5861 133.899 54.1812 133.899 53.6792V21.5642C133.899 21.0621 133.493 20.6572 132.989 20.6572Z" fill="#1EAE91"/>
<path d="M155.097 42.2452C155.016 41.6703 154.878 41.1358 154.683 40.65C154.479 40.1641 154.219 39.6135 153.903 39.0062C153.578 38.3988 153.147 37.7915 152.594 37.1761C152.042 36.5607 151.4 35.9534 150.661 35.3542L146.11 31.6859C144.696 30.5523 143.998 29.4996 143.998 28.536C143.998 28.0501 144.168 27.6614 144.518 27.3537C144.867 27.046 145.29 26.8922 145.793 26.8922C146.175 26.8922 146.525 27.0379 146.842 27.3375C147.158 27.6372 147.321 27.9772 147.337 28.3578L147.362 29.5158C147.37 30.0097 147.776 30.4065 148.272 30.4065H154.073C154.593 30.4065 155.008 29.9693 154.991 29.451C154.935 27.9449 154.723 26.6411 154.366 25.5399C153.935 24.2119 153.293 23.1754 152.44 22.4304C151.587 21.6854 150.612 21.151 149.515 20.8352C148.418 20.5194 147.516 20.3574 146.825 20.3574C146.127 20.3574 145.753 20.3574 145.696 20.3574C145.639 20.3574 145.574 20.3574 145.501 20.3574C142.795 20.3574 140.666 21.0943 139.122 22.56C137.579 24.0337 136.807 26.2687 136.807 29.281C136.807 32.0503 138.09 34.5363 140.658 36.7388L143.843 39.4839C144.997 40.4799 145.826 41.2573 146.338 41.816C146.842 42.3748 147.223 42.974 147.467 43.5975C147.719 44.221 147.841 44.9903 147.841 45.8972C147.841 46.5936 147.678 47.1523 147.362 47.5815C147.045 48.0107 146.606 48.2212 146.045 48.2212C144.851 48.2212 144.25 47.128 144.25 44.9417V42.8039C144.25 42.3019 143.843 41.897 143.34 41.897H137.725C137.221 41.897 136.815 42.3019 136.815 42.8039V45.217C136.815 48.537 137.562 50.9987 139.049 52.5858C140.536 54.1729 143.031 54.9746 146.525 54.9746C147.89 54.9746 149.092 54.7965 150.124 54.4402C151.156 54.0839 152.001 53.6061 152.643 52.9988C153.293 52.3915 153.813 51.6465 154.211 50.7396C154.609 49.8407 154.886 48.9014 155.048 47.9297C155.203 46.958 155.284 45.8729 155.284 44.6826C155.284 44.2129 155.276 43.8323 155.26 43.5408C155.227 43.2574 155.178 42.8201 155.097 42.2452Z" fill="#1EAE91"/>
<path d="M43.8612 11.8075H35.8657C35.1994 11.8075 34.655 12.35 34.655 13.014V34.1082C34.655 35.3472 33.0056 35.7763 32.3962 34.7075L19.6798 12.4148C19.4686 12.0342 19.0623 11.8075 18.6317 11.8075H13.8295C13.5939 11.8075 13.407 11.6212 13.407 11.3864V10.3661V9.71831H42.6098C43.0405 9.71831 43.3899 9.37011 43.3899 8.94094C43.3899 8.49558 43.0161 8.13928 42.5692 8.16357L13.8539 9.62924C13.6101 9.64543 13.407 9.45109 13.407 9.20816V8.88426C13.407 8.65753 13.5776 8.47938 13.8051 8.46318L42.0573 6.44688C42.4636 6.41449 42.7805 6.08249 42.7805 5.66952V4.80308C42.7805 4.33342 42.358 3.96902 41.8948 4.03381L13.7239 8.02591C13.5532 8.05021 13.3989 7.94494 13.3176 7.79918C13.2039 7.58865 12.9845 7.45099 12.7326 7.45099H7.92231C7.3129 7.45099 6.80913 7.94494 6.80913 8.56035V10.2851V10.3094L3.5427 7.96923C3.23393 7.7425 3.35581 7.25664 3.72958 7.19996L39.7253 2.21995C40.1072 2.16326 40.3916 1.83126 40.3916 1.45068V0.778578C40.3916 0.30082 39.961 -0.0635718 39.4897 0.00930647L1.73885 5.16747C0.739415 5.32132 0 6.17157 0 7.18376V47.9875C0 48.3762 0.186884 48.7406 0.503777 48.9673L8.79173 54.919C8.86486 54.9676 8.95424 55 9.04362 55H18.136C18.8023 55 19.3467 54.4575 19.3467 53.7935V32.6669C19.3467 31.4279 20.9962 30.9988 21.6056 32.0676L34.3463 54.3684C34.5575 54.749 34.9638 54.9757 35.3944 54.9757H43.8612C44.5274 54.9757 45.0719 54.4332 45.0719 53.7692V13.014C45.0719 12.35 44.5274 11.8075 43.8612 11.8075ZM7.47541 10.2851V8.56035C7.47541 8.32552 7.6623 8.13928 7.89794 8.13928H12.7082V8.17977V8.54416V9.69402V9.71831V10.3661V11.8156V25.0713C12.7082 25.5005 12.1394 25.6625 11.92 25.29L10.4575 22.8931C10.2949 22.6178 9.8968 22.6178 9.72616 22.8931L8.26358 25.29C8.03607 25.6544 7.47541 25.5005 7.47541 25.0713V10.7953V10.2851Z" fill="#1EAE91"/>
<path d="M156.521 21.1029V26.7469C156.521 26.9979 156.725 27.2004 156.977 27.2004H160.544C160.795 27.2004 160.999 27.4028 160.999 27.6538V54.5378C160.999 54.9994 161.608 55.1613 161.836 54.7645L164.371 50.5214C164.549 50.2299 164.972 50.2299 165.151 50.5214L167.686 54.7645C167.921 55.1613 168.523 54.9913 168.523 54.5378V27.6538C168.523 27.4028 168.726 27.2004 168.978 27.2004H172.545C172.797 27.2004 173 26.9979 173 26.7469V21.1029C173 20.8519 172.797 20.6494 172.545 20.6494H156.977C156.725 20.6575 156.521 20.86 156.521 21.1029Z" fill="#1EAE91"/>
</svg>
