<svg xmlns="http://www.w3.org/2000/svg" width="101" height="32" viewBox="0 0 101 32" fill="none">
  <path d="M33.8465 11.8076C32.061 11.8312 30.7229 12.2976 29.8372 13.2022C28.9468 14.1067 28.5039 15.3835 28.5039 17.0278V26.4363C28.5039 27.2372 28.6028 27.9675 28.8054 28.6223C29.008 29.2772 29.3143 29.8661 29.7288 30.3749C30.1434 30.8885 30.7041 31.2842 31.4061 31.5669C32.1128 31.8496 32.9514 31.9768 33.9172 31.9532C34.8359 31.9768 35.6463 31.8496 36.353 31.5669C37.0597 31.2842 37.6203 30.8885 38.0302 30.3749C38.4448 29.8614 38.751 29.2772 38.9536 28.6223C39.1562 27.9675 39.2551 27.2372 39.2551 26.4363V17.0278C39.2551 15.3835 38.8123 14.1067 37.9218 13.2022C37.0408 12.2976 35.6792 11.8312 33.8465 11.8076ZM34.8783 17.6732C34.8736 17.824 34.8736 17.9229 34.8736 17.97V25.9039C34.8736 25.9274 34.8736 25.9604 34.8736 26.0028C34.8736 26.1866 34.8736 26.3279 34.8689 26.4316C34.8642 26.5352 34.8548 26.686 34.8359 26.8791C34.8171 27.0723 34.7888 27.2278 34.7511 27.3456C34.7087 27.4633 34.6522 27.5811 34.5815 27.713C34.5108 27.8402 34.4166 27.9345 34.2941 27.9957C34.1763 28.057 34.035 28.0899 33.8795 28.0899C33.7052 28.0899 33.5544 28.057 33.4272 27.9863C33.3 27.9156 33.1964 27.812 33.1257 27.6706C33.055 27.5293 32.9891 27.3974 32.9467 27.2655C32.8996 27.1383 32.8713 26.9687 32.8525 26.7614C32.8336 26.5541 32.8242 26.3986 32.8195 26.2902C32.8148 26.1819 32.8148 26.0405 32.8148 25.8568V17.9182C32.8148 17.8946 32.8148 17.8664 32.8148 17.8428C32.8148 17.8193 32.8148 17.791 32.8148 17.758C32.8148 17.5507 32.8148 17.4047 32.8148 17.3199C32.8148 17.2351 32.8242 17.089 32.8383 16.8864C32.8525 16.6838 32.8901 16.5331 32.9373 16.4294C32.9891 16.3258 33.0503 16.2127 33.121 16.0808C33.1964 15.9536 33.2953 15.8594 33.4225 15.8028C33.5497 15.7463 33.7005 15.718 33.8748 15.718C33.9973 15.718 34.1104 15.7321 34.2093 15.7604C34.3083 15.7887 34.3931 15.8405 34.459 15.9112C34.525 15.9818 34.5815 16.0478 34.6333 16.1091C34.6852 16.1703 34.7229 16.2598 34.7511 16.3823C34.7794 16.5001 34.8029 16.6037 34.8265 16.6791C34.8453 16.7592 34.8595 16.8676 34.8642 17.0136C34.8689 17.1597 34.8736 17.268 34.8783 17.3434C34.883 17.4094 34.883 17.5225 34.8783 17.6732Z" fill="white"/>
  <path d="M50.9144 12.0184H47.6023C47.3291 12.0184 47.1029 12.2257 47.0747 12.4942L46.3633 19.6507C46.302 20.2868 45.3692 20.2868 45.3079 19.646L44.6389 12.4942C44.6154 12.221 44.3845 12.0137 44.1113 12.0137H40.7992C40.4788 12.0137 40.2291 12.2964 40.2762 12.6167L42.8203 31.3018C42.858 31.5657 43.0795 31.7588 43.3433 31.7588H48.3703C48.6341 31.7588 48.8603 31.5609 48.8932 31.3018L51.4374 12.6167C51.4845 12.3011 51.2348 12.0184 50.9144 12.0184Z" fill="white"/>
  <path d="M61.1964 27.9108H57.6817C57.3896 27.9108 57.1541 27.6753 57.1541 27.3832V23.9439C57.1541 23.6518 57.3896 23.4162 57.6817 23.4162H60.7394C61.0315 23.4162 61.267 23.1807 61.267 22.8885V20.2408C61.267 19.9487 61.0315 19.7131 60.7394 19.7131H57.6817C57.3896 19.7131 57.1541 19.4776 57.1541 19.1855V16.3916C57.1541 16.0995 57.3896 15.864 57.6817 15.864H60.9137C61.2058 15.864 61.4414 15.6284 61.4414 15.3363V12.5472C61.4414 12.2551 61.2058 12.0195 60.9137 12.0195H53.2484C52.9563 12.0195 52.7207 12.2551 52.7207 12.5472V31.2323C52.7207 31.5244 52.9563 31.76 53.2484 31.76H61.1964C61.4885 31.76 61.724 31.5244 61.724 31.2323V28.4385C61.724 28.1464 61.4885 27.9108 61.1964 27.9108Z" fill="white"/>
  <path d="M71.7149 27.9108H68.2851C67.993 27.9108 67.7574 27.6753 67.7574 27.3832V12.5472C67.7574 12.2551 67.5218 12.0195 67.2297 12.0195H63.9271C63.635 12.0195 63.3994 12.2551 63.3994 12.5472V31.2323C63.3994 31.5244 63.635 31.76 63.9271 31.76H71.7196C72.0117 31.76 72.2473 31.5244 72.2473 31.2323V28.4385C72.2473 28.1464 72.0117 27.9108 71.7149 27.9108Z" fill="white"/>
  <path d="M77.111 12.0195H73.9544C73.6623 12.0195 73.4268 12.2551 73.4268 12.5472V31.2323C73.4268 31.5244 73.6623 31.76 73.9544 31.76H77.111C77.4031 31.76 77.6387 31.5244 77.6387 31.2323V12.5472C77.6387 12.2551 77.4031 12.0195 77.111 12.0195Z" fill="white"/>
  <path d="M89.9294 24.5794C89.8823 24.2449 89.8022 23.934 89.6891 23.6513C89.5713 23.3686 89.4206 23.0482 89.2368 22.6949C89.0484 22.3416 88.7987 21.9882 88.4783 21.6301C88.1579 21.2721 87.7858 20.9187 87.357 20.5701L84.7187 18.4359C83.8989 17.7763 83.4937 17.1638 83.4937 16.6032C83.4937 16.3205 83.5927 16.0943 83.7953 15.9153C83.9979 15.7363 84.2428 15.6468 84.5349 15.6468C84.7564 15.6468 84.959 15.7316 85.1427 15.9059C85.3264 16.0802 85.4207 16.2781 85.4301 16.4995L85.4442 17.1732C85.4489 17.4606 85.6845 17.6915 85.9719 17.6915H89.3358C89.6373 17.6915 89.8776 17.4371 89.8682 17.1355C89.8352 16.2592 89.7127 15.5007 89.5054 14.86C89.2557 14.0873 88.8835 13.4843 88.3888 13.0508C87.8941 12.6174 87.3288 12.3064 86.6927 12.1227C86.0567 11.939 85.5337 11.8447 85.1333 11.8447C84.7281 11.8447 84.5114 11.8447 84.4784 11.8447C84.4454 11.8447 84.4077 11.8447 84.3653 11.8447C82.7965 11.8447 81.5621 12.2735 80.6669 13.1262C79.7718 13.9837 79.3242 15.284 79.3242 17.0366C79.3242 18.6479 80.0686 20.0943 81.5574 21.3757L83.4042 22.9729C84.0732 23.5524 84.5538 24.0046 84.8506 24.3297C85.1427 24.6548 85.3641 25.0035 85.5055 25.3662C85.6515 25.729 85.7222 26.1766 85.7222 26.7042C85.7222 27.1094 85.628 27.4345 85.4442 27.6842C85.2605 27.9339 85.0061 28.0564 84.681 28.0564C83.9884 28.0564 83.6398 27.4204 83.6398 26.1483V24.9045C83.6398 24.6124 83.4042 24.3768 83.1121 24.3768H79.8566C79.5645 24.3768 79.3289 24.6124 79.3289 24.9045V26.3085C79.3289 28.2401 79.7624 29.6724 80.6245 30.5958C81.4867 31.5192 82.9331 31.9856 84.959 31.9856C85.7505 31.9856 86.4477 31.882 87.0461 31.6747C87.6444 31.4674 88.1344 31.1894 88.5066 30.8361C88.8835 30.4827 89.185 30.0493 89.4159 29.5216C89.6467 28.9986 89.8069 28.4521 89.9011 27.8868C89.9906 27.3214 90.0378 26.6901 90.0378 25.9975C90.0378 25.7243 90.0331 25.5028 90.0236 25.3332C90.0048 25.1683 89.9765 24.9139 89.9294 24.5794Z" fill="white"/>
  <path d="M25.4317 6.86981H20.7958C20.4094 6.86981 20.0938 7.18547 20.0938 7.5718V19.8448C20.0938 20.5656 19.1374 20.8153 18.784 20.1934L11.4108 7.22316C11.2883 7.00173 11.0528 6.86981 10.8031 6.86981H8.01867C7.88204 6.86981 7.77368 6.76145 7.77368 6.62482V6.03119V5.65429H24.7062C24.9559 5.65429 25.1585 5.4517 25.1585 5.202C25.1585 4.94288 24.9417 4.73558 24.6826 4.74972L8.0328 5.60246C7.89146 5.61189 7.77368 5.49882 7.77368 5.35748V5.16902C7.77368 5.03711 7.87262 4.93346 8.00453 4.92403L24.3858 3.75091C24.6214 3.73207 24.8051 3.53891 24.8051 3.29863V2.79452C24.8051 2.52126 24.5601 2.30925 24.2916 2.34694L7.95742 4.66962C7.85848 4.68376 7.76897 4.62251 7.72186 4.53771C7.6559 4.41521 7.52869 4.33512 7.38264 4.33512H4.59354C4.24019 4.33512 3.94809 4.62251 3.94809 4.98057V5.98408V5.99822L2.05414 4.63664C1.87511 4.50473 1.94578 4.22205 2.1625 4.18907L23.0337 1.29161C23.2551 1.25863 23.42 1.06546 23.42 0.84403V0.452991C23.42 0.175023 23.1703 -0.0369872 22.897 0.00541467L1.00822 3.00653C0.42873 3.09604 0 3.59073 0 4.17965V27.92C0 28.1461 0.10836 28.3581 0.292101 28.4901L5.09765 31.9529C5.14005 31.9812 5.19188 32 5.2437 32H10.5157C10.902 32 11.2177 31.6843 11.2177 31.298V19.0062C11.2177 18.2853 12.1741 18.0356 12.5274 18.6575L19.9148 31.6325C20.0373 31.8539 20.2728 31.9859 20.5225 31.9859H25.4317C25.818 31.9859 26.1337 31.6702 26.1337 31.2839V7.5718C26.1337 7.18547 25.818 6.86981 25.4317 6.86981ZM4.33442 5.98408V4.98057C4.33442 4.84394 4.44278 4.73558 4.57941 4.73558H7.36851V4.75914V4.97115V5.64016V5.65429V6.03119V6.87452V14.587C7.36851 14.8367 7.03871 14.9309 6.91151 14.7142L6.06347 13.3196C5.96924 13.1594 5.73839 13.1594 5.63945 13.3196L4.79141 14.7142C4.6595 14.9262 4.33442 14.8367 4.33442 14.587V6.2809V5.98408Z" fill="white"/>
  <path d="M90.7549 12.2775V15.5613C90.7549 15.7073 90.8727 15.8251 91.0187 15.8251H93.087C93.233 15.8251 93.3508 15.9429 93.3508 16.089V31.7306C93.3508 31.9991 93.7042 32.0933 93.8361 31.8625L95.306 29.3937C95.4097 29.2241 95.6547 29.2241 95.7583 29.3937L97.2282 31.8625C97.3649 32.0933 97.7135 31.9944 97.7135 31.7306V16.089C97.7135 15.9429 97.8313 15.8251 97.9773 15.8251H100.046C100.192 15.8251 100.309 15.7073 100.309 15.5613V12.2775C100.309 12.1315 100.192 12.0137 100.046 12.0137H91.0187C90.8727 12.0184 90.7549 12.1362 90.7549 12.2775Z" fill="white"/>
</svg>